<?xml version="1.0" standalone="no"?>
<!DOCTYPE svg PUBLIC "-//W3C//DTD SVG 20010904//EN"
 "http://www.w3.org/TR/2001/REC-SVG-20010904/DTD/svg10.dtd">
<svg version="1.0" xmlns="http://www.w3.org/2000/svg"
 width="260.000000pt" height="260.000000pt" viewBox="0 0 260.000000 260.000000"
 preserveAspectRatio="xMidYMid meet">
<metadata>
Created by potrace 1.11, written by Peter Selinger 2001-2013
</metadata>
<g transform="translate(0.000000,260.000000) scale(0.100000,-0.100000)"
fill="#000000" stroke="none">
<path d="M0 2135 l0 -465 465 0 465 0 0 465 0 465 -465 0 -465 0 0 -465z"/>
<path d="M1060 2135 l0 -465 770 0 770 0 0 465 0 465 -770 0 -770 0 0 -465z"/>
<path d="M0 900 c0 -352 2 -640 4 -640 2 0 18 44 36 97 141 423 356 693 639
802 58 22 214 61 247 61 2 0 4 72 4 160 l0 160 -465 0 -465 0 0 -640z"/>
<path d="M1060 1381 l0 -159 76 -7 c241 -22 522 -136 779 -313 222 -154 255
-174 293 -179 71 -9 116 49 283 367 l109 209 0 121 0 120 -770 0 -770 0 0
-159z"/>
<path d="M1060 550 l0 -550 770 0 770 0 0 513 0 512 -36 -65 c-128 -230 -183
-304 -255 -340 -53 -28 -131 -26 -194 4 -27 13 -112 67 -188 120 -234 165
-367 236 -551 295 -82 26 -253 61 -303 61 -10 0 -13 -117 -13 -550z"/>
<path d="M815 1075 c-142 -38 -252 -104 -356 -212 -112 -117 -205 -276 -283
-487 -36 -95 -106 -336 -106 -363 0 -11 79 -13 430 -13 l430 0 0 545 0 545
-32 -1 c-18 0 -55 -6 -83 -14z"/>
</g>
</svg>
