<?xml version="1.0" standalone="no"?>
<!DOCTYPE svg PUBLIC "-//W3C//DTD SVG 20010904//EN"
 "http://www.w3.org/TR/2001/REC-SVG-20010904/DTD/svg10.dtd">
<svg version="1.0" xmlns="http://www.w3.org/2000/svg"
 width="256.000000pt" height="256.000000pt" viewBox="0 0 256.000000 256.000000"
 preserveAspectRatio="xMidYMid meet">
<metadata>
Created by potrace 1.11, written by Peter Selinger 2001-2013
</metadata>
<g transform="translate(0.000000,256.000000) scale(0.100000,-0.100000)"
fill="#000000" stroke="none">
<path d="M940 2090 l0 -470 -470 0 -470 0 0 -35 0 -35 131 0 131 0 -6 -27
c-42 -196 -256 -1420 -256 -1464 0 -51 2 -59 19 -59 24 0 9 -71 162 778 68
375 126 682 129 682 6 0 607 -1374 624 -1428 9 -27 16 -32 41 -32 27 0 33 5
44 37 8 21 110 288 228 593 118 305 225 582 237 615 81 209 100 255 108 253 8
-3 124 -190 668 -1070 192 -312 268 -428 282 -428 50 0 20 54 -441 801 l-460
744 460 3 459 2 0 35 0 35 -775 0 -775 0 0 470 0 470 -35 0 -35 0 0 -470z m-1
-1222 c-1 -575 -3 -678 -14 -653 -156 355 -569 1305 -572 1318 -5 16 14 17
291 17 l296 0 -1 -682z m489 400 c-60 -156 -177 -458 -260 -673 -82 -214 -152
-392 -154 -394 -2 -2 -4 300 -4 672 l0 677 264 0 263 0 -109 -282z"/>
</g>
</svg>
