<?xml version="1.0" standalone="no"?>
<!DOCTYPE svg PUBLIC "-//W3C//DTD SVG 20010904//EN"
 "http://www.w3.org/TR/2001/REC-SVG-20010904/DTD/svg10.dtd">
<svg version="1.0" xmlns="http://www.w3.org/2000/svg"
 width="260.000000pt" height="260.000000pt" viewBox="0 0 260.000000 260.000000"
 preserveAspectRatio="xMidYMid meet">
<metadata>
Created by potrace 1.11, written by Peter Selinger 2001-2013
</metadata>
<g transform="translate(0.000000,260.000000) scale(0.100000,-0.100000)"
fill="#000000" stroke="none">
<path d="M979 2578 c-1 -13 -2 -232 -3 -488 l-1 -465 -470 -1 c-555 -2 -505 0
-505 -19 0 -13 61 -15 488 -15 l489 0 -1 -205 c0 -113 -2 -205 -5 -206 -4 0
-15 -2 -26 -3 -141 -19 -227 -42 -310 -84 -280 -141 -467 -426 -610 -927 -29
-103 -31 -125 -10 -125 8 0 15 6 15 14 0 26 89 310 126 400 127 316 291 515
505 616 94 44 237 77 305 71 7 -1 10 -169 10 -571 -1 -537 0 -570 17 -570 16
0 17 34 17 575 l0 575 73 -6 c39 -3 83 -7 97 -10 14 -2 43 -7 65 -10 65 -10
241 -71 340 -118 116 -55 215 -115 363 -220 192 -136 254 -160 330 -126 56 25
99 75 170 193 91 155 152 282 152 319 0 27 -16 3 -86 -132 -145 -280 -211
-361 -292 -362 -54 -1 -90 19 -281 152 -333 232 -611 339 -908 349 l-23 1 0
205 0 205 796 0 c741 0 795 1 792 17 -3 16 -60 17 -796 17 l-792 0 0 488 c0
427 -2 488 -15 488 -9 0 -15 -10 -16 -22z"/>
</g>
</svg>
