<?xml version="1.0" standalone="no"?>
<!DOCTYPE svg PUBLIC "-//W3C//DTD SVG 20010904//EN"
 "http://www.w3.org/TR/2001/REC-SVG-20010904/DTD/svg10.dtd">
<svg version="1.0" xmlns="http://www.w3.org/2000/svg"
 width="260.000000pt" height="260.000000pt" viewBox="0 0 260.000000 260.000000"
 preserveAspectRatio="xMidYMid meet">
<metadata>
Created by potrace 1.11, written by Peter Selinger 2001-2013
</metadata>
<g transform="translate(0.000000,260.000000) scale(0.100000,-0.100000)"
fill="#000000" stroke="none">
<path d="M0 2040 l0 -560 433 -3 432 -2 -432 -3 -433 -2 0 -735 0 -735 560 0
560 0 3 513 2 512 3 -512 2 -513 735 0 735 0 0 735 0 735 -735 0 -734 0 -4
-92 -3 -93 -2 98 -2 97 740 0 740 0 0 560 0 560 -735 0 -735 0 -3 -432 -2
-433 -3 433 -2 432 -560 0 -560 0 0 -560z"/>
</g>
</svg>
